<?xml version="1.0" encoding="UTF-8"?>
<svg xmlns="http://www.w3.org/2000/svg" xmlns:xlink="http://www.w3.org/1999/xlink" width="1580" height="469" viewBox="0 0 1580 469" font-family="Inter, system-ui, sans-serif">
  <defs>
        <marker id="arrow-end" markerWidth="8" markerHeight="8" refX="6" refY="4" orient="auto" markerUnits="strokeWidth">
            <path d="M1,1 L6,4 L1,7 z" fill="context-stroke" />
        </marker>
        <marker id="arrow-start" markerWidth="8" markerHeight="8" refX="2" refY="4" orient="auto" markerUnits="strokeWidth">
            <path d="M7,1 L2,4 L7,7 z" fill="context-stroke" />
        </marker>
  </defs>
  <rect width="100%" height="100%" fill="white" />
  <line x1="220.0" y1="310.0" x2="239.0" y2="310.0" stroke="#2d3748" stroke-width="2" marker-end="url(#arrow-end)" />
  <line x1="380.0" y1="310.0" x2="487.4" y2="310.0" stroke="#2d3748" stroke-width="2" marker-end="url(#arrow-end)" />
  <g pointer-events="none">
    <rect x="414.6" y="286.0" width="38.2" height="28.0" rx="6" ry="6" fill="white" fill-opacity="0.96" stroke="#2d3748" stroke-width="1" />
    <text x="433.7" y="300.0" fill="#2d3748" font-size="13" text-anchor="middle" dominant-baseline="middle" xml:space="preserve">Yes</text>
  </g>
  <polyline points="652.0,310.0 890.0,310.0 957.4,310.0" fill="none" stroke="#2d3748" stroke-width="2" marker-end="url(#arrow-end)" />
  <line x1="957.4" y1="285.0" x2="957.4" y2="131.0" stroke="#2d3748" stroke-width="2" marker-end="url(#arrow-end)" />
  <line x1="1027.4" y1="310.0" x2="1145.1" y2="310.0" stroke="#2d3748" stroke-width="2" marker-end="url(#arrow-end)" />
  <g pointer-events="none">
    <rect x="1067.2" y="286.0" width="38.2" height="28.0" rx="6" ry="6" fill="white" fill-opacity="0.96" stroke="#2d3748" stroke-width="1" />
    <text x="1086.3" y="300.0" fill="#2d3748" font-size="13" text-anchor="middle" dominant-baseline="middle" xml:space="preserve">Yes</text>
  </g>
  <polyline points="1216.8,335.0 1216.8,375.0 957.4,375.0 569.8,375.0 570.0,336.0" fill="none" stroke="#2d3748" stroke-width="2" marker-end="url(#arrow-end)" />
  <g pointer-events="none">
    <rect x="939.4" y="361.0" width="36.0" height="28.0" rx="6" ry="6" fill="white" fill-opacity="0.96" stroke="#2d3748" stroke-width="1" />
    <text x="957.4" y="375.0" fill="#2d3748" font-size="13" text-anchor="middle" dominant-baseline="middle" xml:space="preserve">No</text>
  </g>
  <line x1="1287.5" y1="310.0" x2="1359.0" y2="310.0" stroke="#2d3748" stroke-width="2" marker-end="url(#arrow-end)" />
  <g pointer-events="none">
    <rect x="1304.2" y="286.0" width="38.2" height="28.0" rx="6" ry="6" fill="white" fill-opacity="0.96" stroke="#2d3748" stroke-width="1" />
    <text x="1323.3" y="300.0" fill="#2d3748" font-size="13" text-anchor="middle" dominant-baseline="middle" xml:space="preserve">Yes</text>
  </g>
  <polyline points="1216.8,285.0 1216.8,235.0 1216.8,185.0 1147.1,185.0" fill="none" stroke="#2d3748" stroke-width="2" marker-end="url(#arrow-end)" />
  <g pointer-events="none">
    <rect x="1197.7" y="221.0" width="38.2" height="28.0" rx="6" ry="6" fill="white" fill-opacity="0.96" stroke="#2d3748" stroke-width="1" />
    <text x="1216.8" y="235.0" fill="#2d3748" font-size="13" text-anchor="middle" dominant-baseline="middle" xml:space="preserve">Yes</text>
  </g>
  <polyline points="1071.7,210.0 1071.7,235.0 740.0,235.0 627.7,284.6" fill="none" stroke="#2d3748" stroke-width="2" marker-end="url(#arrow-end)" />
  <line x1="310.0" y1="285.0" x2="310.0" y2="211.0" stroke="#2d3748" stroke-width="2" marker-end="url(#arrow-end)" />
  <g pointer-events="none">
    <rect x="292.0" y="224.0" width="36.0" height="28.0" rx="6" ry="6" fill="white" fill-opacity="0.96" stroke="#2d3748" stroke-width="1" />
    <text x="310.0" y="238.0" fill="#2d3748" font-size="13" text-anchor="middle" dominant-baseline="middle" xml:space="preserve">No</text>
  </g>
  <line x1="340.6" y1="199.7" x2="517.2" y2="284.6" stroke="#2d3748" stroke-width="2" marker-end="url(#arrow-end)" />
  <g pointer-events="none">
    <rect x="410.9" y="218.1" width="36.0" height="28.0" rx="6" ry="6" fill="white" fill-opacity="0.96" stroke="#2d3748" stroke-width="1" />
    <text x="428.9" y="232.1" fill="#2d3748" font-size="13" text-anchor="middle" dominant-baseline="middle" xml:space="preserve">No</text>
  </g>
  <line x1="384.4" y1="185.0" x2="498.8" y2="185.0" stroke="#2d3748" stroke-width="2" marker-end="url(#arrow-end)" />
  <g pointer-events="none">
    <rect x="422.5" y="161.0" width="38.2" height="28.0" rx="6" ry="6" fill="white" fill-opacity="0.96" stroke="#2d3748" stroke-width="1" />
    <text x="441.6" y="175.0" fill="#2d3748" font-size="13" text-anchor="middle" dominant-baseline="middle" xml:space="preserve">Yes</text>
  </g>
  <line x1="569.9" y1="210.0" x2="570.1" y2="284.0" stroke="#2d3748" stroke-width="2" marker-end="url(#arrow-end)" />
  <g pointer-events="none">
    <rect x="550.9" y="223.0" width="38.2" height="28.0" rx="6" ry="6" fill="white" fill-opacity="0.96" stroke="#2d3748" stroke-width="1" />
    <text x="570.0" y="237.0" fill="#2d3748" font-size="13" text-anchor="middle" dominant-baseline="middle" xml:space="preserve">Yes</text>
  </g>
  <line x1="639.8" y1="185.0" x2="756.6" y2="185.0" stroke="#2d3748" stroke-width="2" marker-end="url(#arrow-end)" />
  <g pointer-events="none">
    <rect x="680.2" y="161.0" width="36.0" height="28.0" rx="6" ry="6" fill="white" fill-opacity="0.96" stroke="#2d3748" stroke-width="1" />
    <text x="698.2" y="175.0" fill="#2d3748" font-size="13" text-anchor="middle" dominant-baseline="middle" xml:space="preserve">No</text>
  </g>
  <line x1="928.6" y1="185.0" x2="996.3" y2="185.0" stroke="#2d3748" stroke-width="2" marker-end="url(#arrow-end)" />
  <rect x="80.0" y="285.0" width="140.0" height="50.0" rx="30" ry="30" fill="#c4f1f9" stroke="#2d3748" stroke-width="2" />
  <text x="150.0" y="310.0" fill="#1a202c" font-size="14" text-anchor="middle" dominant-baseline="middle">R1 &amp; R2</text>
  <polygon points="310.0,285.0 380.0,310.0 310.0,335.0 240.0,310.0" fill="#fbcfe8" stroke="#2d3748" stroke-width="2" />
  <text x="310.0" y="310.0" fill="#1a202c" font-size="14" text-anchor="middle" dominant-baseline="middle">Dry run</text>
  <rect x="488.4" y="285.0" width="163.6" height="50.0" rx="8" ry="8" fill="#fde68a" stroke="#2d3748" stroke-width="2" />
  <text x="570.2" y="310.0" fill="#1a202c" font-size="14" text-anchor="middle" dominant-baseline="middle">Reader (input)</text>
  <polygon points="957.4,285.0 1027.4,310.0 957.4,335.0 887.4,310.0" fill="#fbcfe8" stroke="#2d3748" stroke-width="2" />
  <text x="957.4" y="310.0" fill="#1a202c" font-size="14" text-anchor="middle" dominant-baseline="middle">ID match</text>
  <rect x="838.6" y="80.0" width="237.6" height="50.0" rx="8" ry="8" fill="#fde68a" stroke="#2d3748" stroke-width="2" />
  <text x="957.4" y="105.0" fill="#1a202c" font-size="14" text-anchor="middle" dominant-baseline="middle">PAIRS ARE DESYNCHRONIZED</text>
  <polygon points="1216.8,285.0 1287.5,310.0 1216.8,335.0 1146.1,310.0" fill="#fbcfe8" stroke="#2d3748" stroke-width="2" />
  <text x="1216.8" y="310.0" fill="#1a202c" font-size="14" text-anchor="middle" dominant-baseline="middle">Hash unique</text>
  <rect x="1360.0" y="285.0" width="140.0" height="50.0" rx="8" ry="8" fill="#fde68a" stroke="#2d3748" stroke-width="2" />
  <text x="1430.0" y="310.0" fill="#1a202c" font-size="14" text-anchor="middle" dominant-baseline="middle">Writer</text>
  <rect x="997.3" y="160.0" width="148.8" height="50.0" rx="8" ry="8" fill="#fde68a" stroke="#2d3748" stroke-width="2" />
  <text x="1071.7" y="185.0" fill="#1a202c" font-size="14" text-anchor="middle" dominant-baseline="middle">Add to table</text>
  <polygon points="310.0,160.0 384.4,185.0 310.0,210.0 235.6,185.0" fill="#fbcfe8" stroke="#2d3748" stroke-width="2" />
  <text x="310.0" y="185.0" fill="#1a202c" font-size="14" text-anchor="middle" dominant-baseline="middle">output exist</text>
  <polygon points="569.8,160.0 639.8,185.0 569.8,210.0 499.8,185.0" fill="#fbcfe8" stroke="#2d3748" stroke-width="2" />
  <text x="569.8" y="185.0" fill="#1a202c" font-size="14" text-anchor="middle" dominant-baseline="middle">Compressed</text>
  <rect x="757.6" y="160.0" width="171.0" height="50.0" rx="8" ry="8" fill="#fde68a" stroke="#2d3748" stroke-width="2" />
  <text x="843.1" y="185.0" fill="#1a202c" font-size="14" text-anchor="middle" dominant-baseline="middle">Reader (output)</text>
</svg>
